<svg id="Layer_1" data-name="Layer 1" xmlns="http://www.w3.org/2000/svg" xmlns:xlink="http://www.w3.org/1999/xlink" viewBox="0 0 34 33.99"><defs><style>.cls-1{fill:none;}.cls-2{clip-path:url(#clip-path);}.cls-3{fill:#ecbfa4;}.cls-4{fill:#f3e7d8;}.cls-5{fill:url(#linear-gradient);}.cls-6{fill:#263238;}.cls-7,.cls-8{opacity:0.3;}.cls-8{isolation:isolate;}.cls-9{fill:#e0e0e0;}.cls-10{fill:#fafafa;}.cls-11{fill:#60461d;}.cls-12{fill:#455a64;}</style><clipPath id="clip-path" transform="translate(0 -0.01)"><rect class="cls-1" width="34" height="34"/></clipPath><linearGradient id="linear-gradient" x1="16.15" y1="25.35" x2="11.98" y2="2.48" gradientTransform="matrix(1, 0, 0, -1, 0, 36)" gradientUnits="userSpaceOnUse"><stop offset="0" stop-color="#00be15"/><stop offset="1" stop-color="#00593e"/></linearGradient></defs><g class="cls-2"><path class="cls-3" d="M3.41,18.09a2,2,0,0,0-.11-2.81,2,2,0,0,0-2.78.14,2,2,0,0,0,.12,2.81A1.94,1.94,0,0,0,3.41,18.09Z" transform="translate(0 -0.01)"/><path class="cls-3" d="M6.78,14c-2.37.45-4.42.77-4.9.82l.17,4s3.22-.15,6.44-.53A21.31,21.31,0,0,1,6.78,14Z" transform="translate(0 -0.01)"/><path class="cls-4" d="M7.57,14.75A2.53,2.53,0,0,0,7.5,16a2.28,2.28,0,0,0,.41,1,2.4,2.4,0,0,0,2.87.8A2.45,2.45,0,0,0,12,16.69a2.5,2.5,0,0,0,.27-1.57,2.44,2.44,0,0,0-.75-1.4,2.39,2.39,0,0,0-3-.24,2.4,2.4,0,0,0-1,1.26Z" transform="translate(0 -0.01)"/><path class="cls-4" d="M5.3,16.77c-.07-.9-.22-1.8-.28-2.7,1.43-.27,2.92-.58,4.16-.9l.25-.07,1.42,4.63-.25.09a27.15,27.15,0,0,1-5.16.92C5.4,18.09,5.36,17.43,5.3,16.77Z" transform="translate(0 -0.01)"/><path class="cls-3" d="M0,17a2,2,0,0,1,1.15-2,1.9,1.9,0,0,1,1.22-.13,1.89,1.89,0,0,1,1.06.62,2,2,0,0,1,.49,1.13,2.06,2.06,0,0,1-.27,1.21,1.91,1.91,0,0,1-.92.81,1.87,1.87,0,0,1-1.21.11,2,2,0,0,1-1-.61A2.08,2.08,0,0,1,0,17Z" transform="translate(0 -0.01)"/><path class="cls-3" d="M4.33,7a1,1,0,0,1,.1-.65,1,1,0,0,1,1.11-.54,1,1,0,0,1,.56.33,1.05,1.05,0,0,1,.26.6,1,1,0,0,1-.16.64,1.05,1.05,0,0,1-.5.41,1,1,0,0,1-.65,0,1.11,1.11,0,0,1-.48-.31A1.05,1.05,0,0,1,4.33,7Z" transform="translate(0 -0.01)"/><path class="cls-3" d="M4.32,6.84A43,43,0,0,1,1.53,13,30.25,30.25,0,0,0,0,16.36L3.77,17.6,6.31,7.25Z" transform="translate(0 -0.01)"/><path class="cls-3" d="M9.8,4.87c-.13-.22-1.39.71-1.56.17s.35-1.13.86-1.7,2-1.8,1.59-2S8.43,3.21,8.2,3,9.85.7,9.55.35H9.48l-.11,0c-.45.11-1.64,2.38-2,2.35S8.59.24,8.21,0C7.75,0,6.63,2.63,6.35,2.67S7.05.61,6.66.6s-1.08,2-1.42,3.06-.73,2.61-.79,2.89L6.34,7A11.56,11.56,0,0,1,8.57,6C9.34,5.7,9.92,5.1,9.8,4.87Z" transform="translate(0 -0.01)"/><path class="cls-3" d="M6.32,7.23a1,1,0,0,0-.1-.62,1,1,0,0,0-.45-.43,1,1,0,0,0-.62-.07,1,1,0,0,0-.53.32,1,1,0,0,0-.08,1.19A1,1,0,0,0,5,8a.94.94,0,0,0,.62,0,1,1,0,0,0,.67-.79Z" transform="translate(0 -0.01)"/><path class="cls-3" d="M24.55,26.47a1.83,1.83,0,0,1-.05,2.11,1.79,1.79,0,0,1-2,.59,1.81,1.81,0,0,1-1.16-1.76,1.89,1.89,0,0,1,.38-1,1.85,1.85,0,0,1,.92-.61,1.78,1.78,0,0,1,1.92.71Z" transform="translate(0 -0.01)"/><path class="cls-3" d="M23.3,22.44c.64,2.1,1.24,3.89,1.4,4.29l-3.2,1.51s-1.22-2.66-2.26-5.41A16.65,16.65,0,0,0,23.3,22.44Z" transform="translate(0 -0.01)"/><path class="cls-4" d="M22.34,22.15a2.22,2.22,0,0,1-.95.58,2,2,0,0,1-.92.06,2.15,2.15,0,0,1-1.07-.49,2.28,2.28,0,0,1-.66-1,2.41,2.41,0,0,1-.06-1.19,2.22,2.22,0,0,1,.57-1,1.76,1.76,0,0,1,.61-.44,2.1,2.1,0,0,1,1.48-.15,2.22,2.22,0,0,1,1.22.84,2.25,2.25,0,0,1,.4,1.45A2.2,2.2,0,0,1,22.34,22.15Z" transform="translate(0 -0.01)"/><path class="cls-4" d="M21.7,24.81c.74-.31,1.51-.57,2.25-.9-.39-1.26-.76-2.59-1-3.72L22.87,20l-4.25.79,0,.24a25.59,25.59,0,0,0,1.42,4.54Q20.89,25.16,21.7,24.81Z" transform="translate(0 -0.01)"/><path class="cls-3" d="M23.76,29.14a1.72,1.72,0,0,0,.85-.7,1.79,1.79,0,0,0,.28-1.08,1.77,1.77,0,0,0-.41-1,1.74,1.74,0,0,0-.93-.59,1.7,1.7,0,0,0-1.09.08,1.76,1.76,0,0,0-.84.71,1.81,1.81,0,0,0-.26,1.08,1.85,1.85,0,0,0,.42,1,1.79,1.79,0,0,0,.91.57A1.7,1.7,0,0,0,23.76,29.14Z" transform="translate(0 -0.01)"/><path class="cls-3" d="M31.24,23.41a1,1,0,0,0,.39-.25,1,1,0,0,0,.22-.41.94.94,0,0,0,0-.47,1,1,0,0,0-.23-.41.94.94,0,0,0-.43-.25.89.89,0,0,0-.51,0,.82.82,0,0,0-.39.25,1,1,0,0,0-.22.41,1,1,0,0,0,0,.46,1.09,1.09,0,0,0,.22.41.92.92,0,0,0,.44.25A.94.94,0,0,0,31.24,23.41Z" transform="translate(0 -0.01)"/><path class="cls-3" d="M31.43,23.32A36.83,36.83,0,0,0,26.68,27,25.9,25.9,0,0,1,24,29L22.21,26l8.47-4.31Z" transform="translate(0 -0.01)"/><path class="cls-3" d="M33.32,17.34l-.9,2a1.54,1.54,0,0,1-.47.48c-.91.44-.15-1.14-.47-1.22s-.55.57-.64,1.26a10.62,10.62,0,0,1-.27,2l.8,1.42,1-.58a.7.7,0,0,0,.19-.15c.12-.12.44-.3.52-.39a3.52,3.52,0,0,0,.53-.56,4.47,4.47,0,0,0,.3-1.39,3.75,3.75,0,0,0,.1-.82,3.45,3.45,0,0,1,0-.64l-.34-1.46a.14.14,0,0,0,0-.1.22.22,0,0,0-.11-.05.2.2,0,0,0-.11,0A.16.16,0,0,0,33.32,17.34Z" transform="translate(0 -0.01)"/><path class="cls-3" d="M30.47,22a.78.78,0,0,1,.45-.23.88.88,0,0,1,.5.09.77.77,0,0,1,.34.37.78.78,0,0,1,.07.5.8.8,0,0,1-.24.45A.81.81,0,0,1,30.3,23a.85.85,0,0,1-.06-.5A.82.82,0,0,1,30.47,22Z" transform="translate(0 -0.01)"/><path class="cls-5" d="M14.6,11.5l1.72-.86,4.37,1.65.62,2.06s1.72,1,2,1.73.62,7.75.62,7.75H21.18L20.59,30l.23,4L7.59,33.38l-.06-1.32a11.72,11.72,0,0,1,.11-1.57L10.19,18.2,6.13,19.25l-.71-5.81,7-1.67Z" transform="translate(0 -0.01)"/><path class="cls-6" d="M21.69,16.82v.52c0,.34,0,.81-.07,1.41-.07,1.19-.19,2.84-.36,4.65s-.32,3.46-.45,4.65l-.15,1.4c0,.16,0,.29-.05.39a.59.59,0,0,1,0,.13v-.13c0-.1,0-.23,0-.39L20.75,28c.11-1.19.26-2.83.42-4.65s.3-3.45.39-4.64c0-.6.07-1.08.09-1.41V17A.61.61,0,0,1,21.69,16.82Z" transform="translate(0 -0.01)"/><path class="cls-6" d="M20.41,32.18l-.11,0-.34,0c-.28,0-.69.06-1.2.07a26.54,26.54,0,0,1-4-.2,20.88,20.88,0,0,1-2.17-.36,10,10,0,0,1-1.71-.54,6.19,6.19,0,0,1-1.07-.59l-.26-.2-.09-.08.37.25a6.1,6.1,0,0,0,1.08.55,9.13,9.13,0,0,0,1.71.52c.65.14,1.39.26,2.16.36a29.27,29.27,0,0,0,4,.22c.51,0,.92,0,1.21,0h.44Z" transform="translate(0 -0.01)"/><path class="cls-6" d="M12.54,16.82a3.68,3.68,0,0,0,.75-.48,2.67,2.67,0,0,0,.56-.77,2.84,2.84,0,0,0,.27-1.14,2.47,2.47,0,0,0,0-.61,2,2,0,0,0-.19-.54,3.49,3.49,0,0,0-.52-.81,6.17,6.17,0,0,0-.66-.59l0,0,.16.1a2.92,2.92,0,0,1,.5.43,3.24,3.24,0,0,1,.54.82,2.13,2.13,0,0,1,.2.55,2.67,2.67,0,0,1,0,.63,2.92,2.92,0,0,1-.28,1.17,2.44,2.44,0,0,1-.6.79,2.46,2.46,0,0,1-.56.34A1,1,0,0,1,12.54,16.82Z" transform="translate(0 -0.01)"/><path class="cls-6" d="M18.7,16a.71.71,0,0,1-.13-.12c-.08-.07-.2-.19-.35-.35a12.25,12.25,0,0,1-1.09-1.38h.07a8.06,8.06,0,0,0-.44,1.67l0,.14-.06-.13-.13-.28a26,26,0,0,1-1.14-3c-.12-.39-.21-.7-.27-.92l-.06-.25s0-.06,0-.09a.2.2,0,0,1,0,.08l.07.25.3.92a28.65,28.65,0,0,0,1.16,2.95l.12.28h-.08a9,9,0,0,1,.45-1.69l0-.07,0,.06a14.14,14.14,0,0,0,1.07,1.38l.33.37A.76.76,0,0,1,18.7,16Z" transform="translate(0 -0.01)"/><path class="cls-6" d="M21.16,14a.88.88,0,0,1,0,.16c0,.1,0,.25,0,.44a7.4,7.4,0,0,1-.26,1.48l-.06.23,0-.24a1.86,1.86,0,0,0-.08-.41,1.93,1.93,0,0,0-.45-.8h.05a7.37,7.37,0,0,1-.79.79l-.25.2-.1.07c.1-.11.2-.21.31-.31a8.4,8.4,0,0,0,.78-.8l0,0,0,0a2,2,0,0,1,.48.83,2,2,0,0,1,.08.43h-.09a8.18,8.18,0,0,0,.28-1.46C21.15,14.22,21.15,14,21.16,14Z" transform="translate(0 -0.01)"/><path class="cls-6" d="M18.23,19.65a.55.55,0,0,1,.18,0l.48.1,0,0c0-.4,0-.94,0-1.54s0-1.15.06-1.55c0-.2,0-.36,0-.47a.88.88,0,0,1,0-.17.49.49,0,0,1,0,.17v.47c0,.4,0,.95,0,1.56s0,1.13-.06,1.53v0h0l-.48-.13Z" transform="translate(0 -0.01)"/><path class="cls-6" d="M18.56,16.82h.05a.24.24,0,0,1,.12.07.21.21,0,0,1,0,.11.25.25,0,0,1,0,.12.3.3,0,0,1-.08.08.23.23,0,0,1-.11,0,.16.16,0,0,1-.1,0,.18.18,0,0,1-.07-.05.59.59,0,0,1,0-.08V17a.37.37,0,0,1,.05-.11.21.21,0,0,1,.1-.06v0a.11.11,0,0,1,.06,0l-.05,0v0l-.06.06a.24.24,0,0,0,0,.08.06.06,0,0,0,0,.06s0,0,0,.05l0,0h0a.11.11,0,0,0,.08,0,.12.12,0,0,0,.06-.06s0-.05,0-.07a.14.14,0,0,0,0-.07.24.24,0,0,0-.11-.09Z" transform="translate(0 -0.01)"/><g class="cls-7"><path class="cls-8" d="M14.48,11.52a87.94,87.94,0,0,0,3.13,9.05A3.47,3.47,0,0,1,18,22.4l-1.59,0c0,.51,0,2.25,0,2.25l2.42-.22-.2-3.3-2-5-1.86-4.72Z" transform="translate(0 -0.01)"/></g><path class="cls-6" d="M15,11.28,18.42,21h.43l2.47-6.6.33.21L19,21.47h-.64l-3.74-10Z" transform="translate(0 -0.01)"/><path class="cls-9" d="M19,21.47h-.66v1.66H19Z" transform="translate(0 -0.01)"/><path class="cls-10" d="M20.53,22.52H16.71v2.33h3.82Z" transform="translate(0 -0.01)"/><path class="cls-6" d="M20.53,24.85v-.64c0-.41,0-1,0-1.69l0,0H16.72l.05,0v2.34l0,0,2.74,0h1.08a.06.06,0,0,1-.06,0h-1l-2.76,0h0V22.51l0-.05h3.86v0c0,.71,0,1.29,0,1.71v.46A.53.53,0,0,1,20.53,24.85Z" transform="translate(0 -0.01)"/><g class="cls-7"><path class="cls-8" d="M19,16.22a1.64,1.64,0,0,0,.67-.21,1.66,1.66,0,0,0,.51-.48,2,2,0,0,0,.35.89.75.75,0,0,0,.25-.38.9.9,0,0,0,0-.46,2.53,2.53,0,0,0-.43-.81c-.49.44-.88.89-1.37,1.32" transform="translate(0 -0.01)"/></g><path class="cls-3" d="M16.32,10.64l1.37.52.71.26,2.18.84,0-.47a2,2,0,0,0,2-1.75c.11-.83.2-2.54.26-4.09A3.18,3.18,0,0,0,20,2.64l-.16,0C18.05,2.5,17,4,16.9,5.75Z" transform="translate(0 -0.01)"/><path class="cls-3" d="M16.89,7s-1.12-.49-1.23.68a.88.88,0,0,0,1.09,1S16.89,7,16.89,7Z" transform="translate(0 -0.01)"/><path class="cls-11" d="M16.43,8.23l-.05,0a.16.16,0,0,1-.15,0A.47.47,0,0,1,16.07,8a.39.39,0,0,1,0-.26.54.54,0,0,1,.08-.28.33.33,0,0,1,.06-.1l.11,0h.07l0,.06s0,.06,0,.06,0,0,0-.07a.12.12,0,0,0,0-.08l-.05,0h-.06a.32.32,0,0,0-.22.17.63.63,0,0,0-.1.32.55.55,0,0,0,0,.31.66.66,0,0,0,.21.23.14.14,0,0,0,.09,0l.09,0S16.44,8.23,16.43,8.23Z" transform="translate(0 -0.01)"/><path class="cls-6" d="M23.19,4a.57.57,0,0,0-.11-.33.71.71,0,0,0-.27-.21.5.5,0,0,0,.07-.34.49.49,0,0,0-.16-.32.48.48,0,0,0-.32-.15.52.52,0,0,0-.34.09.43.43,0,0,0,0-.25.45.45,0,0,0-.15-.21.48.48,0,0,0-.22-.12.57.57,0,0,0-.26,0,.51.51,0,0,0,0-.3.43.43,0,0,0-.23-.21.44.44,0,0,0-.3,0,.49.49,0,0,0-.25.17.74.74,0,0,0-.23-.27A.86.86,0,0,0,20,1.36a.83.83,0,0,0-.35,0,.81.81,0,0,0-.32.16,1,1,0,0,0-.71-.05,1,1,0,0,0-.57.44.93.93,0,0,0-.54.14,1,1,0,0,0-.37.42.7.7,0,0,0-.35.09.63.63,0,0,0-.27.24.76.76,0,0,0-.11.35.73.73,0,0,0,.08.36.45.45,0,0,0-.19.14.47.47,0,0,0-.11.21.65.65,0,0,0,0,.24.55.55,0,0,0,.1.22.53.53,0,0,0-.23.16.55.55,0,0,0-.12.27.49.49,0,0,0,.06.29.48.48,0,0,0,.19.21c-.17,0-.27.22-.24.39a4.94,4.94,0,0,0,.19.49c0,.13,0,.28.07.42a.92.92,0,0,0,.17.36.86.86,0,0,0,.31.26l0,0c-.05.15.15.28.29.23a.74.74,0,0,0,.34-.29,1.9,1.9,0,0,0,.3-.44.54.54,0,0,0,0-.25.41.41,0,0,0-.13-.22.74.74,0,0,0,.27-.16.76.76,0,0,0,.15-.28,2,2,0,0,0,0-.64l-.05-.94a1.08,1.08,0,0,0,.61-.12A1.19,1.19,0,0,0,19,3.68a.72.72,0,0,0,.24.14.86.86,0,0,0,.28,0,.62.62,0,0,0,.26-.09.61.61,0,0,0,.2-.19.87.87,0,0,0,.36.53.82.82,0,0,0,.62.14c-.07.24.33.51.56.61a.83.83,0,0,0,.54,0s.37.29.61.23.55-.3.44-.55A1.09,1.09,0,0,0,23.19,4Z" transform="translate(0 -0.01)"/><path class="cls-12" d="M16.24,4.32a.56.56,0,0,0,.09.17l.09,0h.1l.11,0a.23.23,0,0,0,.07-.1l0-.07.05,0a.42.42,0,0,0,.14.09.25.25,0,0,0,.17,0,.36.36,0,0,0,.16-.11.35.35,0,0,0,.06-.18V4.12l.06,0a.31.31,0,0,0,.23,0,.36.36,0,0,0,.16-.11,1.3,1.3,0,0,0,.08-.17.31.31,0,0,1-.22.33.24.24,0,0,1-.15,0,.23.23,0,0,1-.14,0l.06,0a.34.34,0,0,1-.07.22.34.34,0,0,1-.18.15.44.44,0,0,1-.23,0,.41.41,0,0,1-.19-.13h.07a.41.41,0,0,1-.1.13l-.15.06a.27.27,0,0,1-.13,0,.18.18,0,0,1-.1-.07C16.21,4.41,16.23,4.31,16.24,4.32Z" transform="translate(0 -0.01)"/><path class="cls-12" d="M15.93,5.42l.11.06a.25.25,0,0,0,.17,0,.22.22,0,0,0,.14-.09l0,0,0,0a.23.23,0,0,0,.12.1.3.3,0,0,0,.16,0,.25.25,0,0,0,.16-.08.26.26,0,0,0,.09-.16V5.2l.06,0,0,0a.2.2,0,0,0,.13,0,.24.24,0,0,0,.11-.06.16.16,0,0,0,.05-.11.17.17,0,0,0,0-.12l0-.08.08,0a.32.32,0,0,0,.27,0,.29.29,0,0,0,.15-.16.46.46,0,0,0,.05-.2.26.26,0,0,1,0,.22.45.45,0,0,1-.16.2.49.49,0,0,1-.17.06.33.33,0,0,1-.17,0l.05,0a.3.3,0,0,1,0,.16.33.33,0,0,1-.07.16.38.38,0,0,1-.15.09.28.28,0,0,1-.18,0L17,5.31l.08,0a.44.44,0,0,1-.1.19.37.37,0,0,1-.19.11.34.34,0,0,1-.22,0,.31.31,0,0,1-.17-.13h.06a.28.28,0,0,1-.09.07.28.28,0,0,1-.12,0,.23.23,0,0,1-.16,0C15.94,5.47,15.92,5.42,15.93,5.42Z" transform="translate(0 -0.01)"/><path class="cls-12" d="M21.24,2.09A.47.47,0,0,0,21.12,2a.26.26,0,0,0-.2,0l-.08,0a.47.47,0,0,0-.06.09l0,.06,0-.06A.43.43,0,0,0,20.6,2a.5.5,0,0,0-.2-.08.42.42,0,0,0-.25.06.35.35,0,0,0-.17.19l0,.07,0-.07A.61.61,0,0,0,19.75,2a.58.58,0,0,0-.22-.08.46.46,0,0,0-.32.09.45.45,0,0,0-.2.27v.05l-.05,0a.5.5,0,0,0-.32,0,.52.52,0,0,0-.26.2.54.54,0,0,0-.08.28.66.66,0,0,0,.09.28l0,0h-.06a.53.53,0,0,0-.51.48,1,1,0,0,0,0,.29l0-.07a.45.45,0,0,1,0-.23.59.59,0,0,1,.13-.33.58.58,0,0,1,.19-.15A.55.55,0,0,1,18.35,3l0,.06a.55.55,0,0,1-.12-.35.61.61,0,0,1,.12-.34.52.52,0,0,1,.3-.2.53.53,0,0,1,.35,0l-.06,0A.72.72,0,0,1,19,2a.48.48,0,0,1,.23-.17.55.55,0,0,1,.28,0,.54.54,0,0,1,.25.09.61.61,0,0,1,.19.2h-.07a.39.39,0,0,1,.17-.21.5.5,0,0,1,.27-.08.43.43,0,0,1,.26.09.51.51,0,0,1,.17.21h-.05A.28.28,0,0,1,20.82,2a.23.23,0,0,1,.12-.06.26.26,0,0,1,.19,0,.18.18,0,0,1,.09.08Z" transform="translate(0 -0.01)"/><path d="M17.38,23.8h.39a.33.33,0,0,1,0,.17.55.55,0,0,1-.08.15.45.45,0,0,1-.13.1.5.5,0,0,1-.34,0A.39.39,0,0,1,17,24a.47.47,0,0,1,0-.17.51.51,0,0,1,0-.17.42.42,0,0,1,.09-.14.39.39,0,0,1,.14-.08l.17,0a.4.4,0,0,1,.15,0,.24.24,0,0,1,.11.06.28.28,0,0,1,.09.1l-.11.08a.24.24,0,0,0-.1-.1.23.23,0,0,0-.14,0,.42.42,0,0,0-.15,0,.27.27,0,0,0-.1.11.29.29,0,0,0,0,.16.32.32,0,0,0,0,.16.24.24,0,0,0,.1.1.28.28,0,0,0,.15,0h.1a.18.18,0,0,0,.07-.05.31.31,0,0,0,.09-.14h-.26Z" transform="translate(0 -0.01)"/><path d="M18.05,23.4V24a.17.17,0,0,0,0,.12l.06,0h.13a.1.1,0,0,0,0,0,.18.18,0,0,0,.05-.12V23.4h.14V24a.28.28,0,0,1,0,.13.24.24,0,0,1-.06.09l-.09.06-.13,0-.12,0-.1-.06-.06-.09a.51.51,0,0,1,0-.13V23.4Z" transform="translate(0 -0.01)"/><path d="M18.84,23.4v.84H18.7V23.4Z" transform="translate(0 -0.01)"/><path d="M19.16,23.4v.84H19V23.4Zm-.05.84V24.1h.28l.09-.06a.15.15,0,0,0,.06-.09.5.5,0,0,0,0-.12.59.59,0,0,0,0-.13.24.24,0,0,0-.06-.09l-.09-.05-.12,0h-.16V23.4h.18a.59.59,0,0,1,.22.05.54.54,0,0,1,.15.15.4.4,0,0,1,.05.22.34.34,0,0,1-.05.22.54.54,0,0,1-.15.15.59.59,0,0,1-.22,0Z" transform="translate(0 -0.01)"/><path d="M20,23.4v.84h-.14V23.4Zm0,0h.41v.12h-.41Zm0,.33h.39v.12h-.39Zm0,.38h.41v.13h-.41Z" transform="translate(0 -0.01)"/></g></svg>