<svg id="Layer_1" data-name="Layer 1" xmlns="http://www.w3.org/2000/svg" xmlns:xlink="http://www.w3.org/1999/xlink" viewBox="0 0 28.09 32.67"><defs><style>.cls-1{fill:#00593e;}.cls-2{fill:url(#linear-gradient);}.cls-3{fill:url(#linear-gradient-2);}.cls-4{fill:#e0fcf3;}.cls-5{fill:url(#linear-gradient-3);}.cls-6{fill:url(#linear-gradient-4);}.cls-7{fill:url(#linear-gradient-5);}</style><linearGradient id="linear-gradient" x1="10.86" y1="35.34" x2="10.86" y2="34.01" gradientTransform="matrix(1, 0, 0, -1, 0, 36)" gradientUnits="userSpaceOnUse"><stop offset="0" stop-color="#00be15"/><stop offset="1" stop-color="#00593e"/></linearGradient><linearGradient id="linear-gradient-2" x1="10.86" y1="27.43" x2="10.86" y2="4.46" gradientTransform="matrix(1, 0, 0, -1, 0, 36)" gradientUnits="userSpaceOnUse"><stop offset="0" stop-color="#449540"/><stop offset="1" stop-color="#0f6234"/></linearGradient><linearGradient id="linear-gradient-3" x1="24.9" y1="21.79" x2="24.9" y2="20.79" gradientTransform="matrix(1, 0, 0, -1, 0, 36)" gradientUnits="userSpaceOnUse"><stop offset="0" stop-color="#96d226"/><stop offset="1" stop-color="#00be15"/></linearGradient><linearGradient id="linear-gradient-4" x1="24.9" y1="20.79" x2="24.9" y2="4.46" xlink:href="#linear-gradient-3"/><linearGradient id="linear-gradient-5" x1="24.9" y1="20.79" x2="24.9" y2="4.46" xlink:href="#linear-gradient-3"/></defs><path class="cls-1" d="M13.29,16.13H8.42a1.48,1.48,0,0,1-1.48-1.48V2.48A1.49,1.49,0,0,1,8.42,1h4.87a1.49,1.49,0,0,1,1.49,1.49V14.65A1.49,1.49,0,0,1,13.29,16.13ZM8.42,1.66a.82.82,0,0,0-.82.82V14.65a.82.82,0,0,0,.82.82h4.87a.82.82,0,0,0,.82-.82V2.48a.82.82,0,0,0-.82-.82Z" transform="translate(-2.96 -0.66)"/><path class="cls-2" d="M8.87.66h4V2h-4Z" transform="translate(-2.96 -0.66)"/><path class="cls-3" d="M17.76,31.54H4a1,1,0,0,1-1-1v-21a1,1,0,0,1,1-1H17.76a1,1,0,0,1,1,1v21A1,1,0,0,1,17.76,31.54Z" transform="translate(-2.96 -0.66)"/><path class="cls-1" d="M7.47,33.34H5.94A.34.34,0,0,1,5.61,33V31.54H7.8V33A.34.34,0,0,1,7.47,33.34Z" transform="translate(-2.96 -0.66)"/><path class="cls-1" d="M15.77,33.34H14.24a.34.34,0,0,1-.33-.34V31.54H16.1V33A.34.34,0,0,1,15.77,33.34Z" transform="translate(-2.96 -0.66)"/><path class="cls-4" d="M10.53,11.59h.66V28.52h-.66Z" transform="translate(-2.96 -0.66)"/><path class="cls-4" d="M12.68,11.59h.67V28.52h-.67Z" transform="translate(-2.96 -0.66)"/><path class="cls-4" d="M14.84,11.59h.67V28.52h-.67Z" transform="translate(-2.96 -0.66)"/><path class="cls-4" d="M8.37,11.59H9V28.52H8.37Z" transform="translate(-2.96 -0.66)"/><path class="cls-4" d="M6.21,11.59h.66V28.52H6.21Z" transform="translate(-2.96 -0.66)"/><path class="cls-1" d="M22.41,33.34h-1a.34.34,0,0,1-.34-.34V31.54h1.66V33A.33.33,0,0,1,22.41,33.34Z" transform="translate(-2.96 -0.66)"/><path class="cls-1" d="M28.39,33.34h-1a.34.34,0,0,1-.33-.34V31.54h1.66V33A.34.34,0,0,1,28.39,33.34Z" transform="translate(-2.96 -0.66)"/><path class="cls-5" d="M23.91,15.21a1,1,0,1,1,2,0Z" transform="translate(-2.96 -0.66)"/><path class="cls-6" d="M30.05,31.54H19.76a1,1,0,0,1-1-1V16.2a1,1,0,0,1,1-1H30.05a1,1,0,0,1,1,1V30.55A1,1,0,0,1,30.05,31.54Z" transform="translate(-2.96 -0.66)"/><path class="cls-1" d="M21.58,15.21h6.64V31.54H21.58Z" transform="translate(-2.96 -0.66)"/><path class="cls-7" d="M22.25,15.21h5.31V31.54H22.25Z" transform="translate(-2.96 -0.66)"/><path class="cls-1" d="M23.24,26.56h3.32v3.32H23.24Z" transform="translate(-2.96 -0.66)"/><path class="cls-1" d="M29.05,21.85h-8.3a2,2,0,0,1-2-2V16.2a1,1,0,0,1,1-1H30.05a1,1,0,0,1,1,1v3.66A2,2,0,0,1,29.05,21.85Z" transform="translate(-2.96 -0.66)"/><path d="M20.92,12.55h2v2.66h-2Z" transform="translate(-2.96 -0.66)"/><path d="M26.89,12.55h2v2.66h-2Z" transform="translate(-2.96 -0.66)"/><path d="M21.58,20.85h.67v2h-.67Z" transform="translate(-2.96 -0.66)"/><path d="M27.56,20.85h.66v2h-.66Z" transform="translate(-2.96 -0.66)"/></svg>