<svg id="Layer_1" data-name="Layer 1" xmlns="http://www.w3.org/2000/svg" xmlns:xlink="http://www.w3.org/1999/xlink" viewBox="0 0 31.95 34"><defs><style>.cls-1{fill:none;}.cls-2{clip-path:url(#clip-path);}.cls-3{fill:url(#linear-gradient);}.cls-4{fill:#00d217;}.cls-5{fill:#f5ffde;}.cls-6{fill:#00593e;}.cls-7{fill:#edffef;}.cls-8{fill:#00be15;fill-opacity:0.4;}.cls-9{fill:url(#linear-gradient-2);}.cls-10{fill:url(#linear-gradient-3);}.cls-11{fill:url(#linear-gradient-4);}.cls-12{fill:url(#linear-gradient-5);}.cls-13{fill:url(#linear-gradient-6);}.cls-14{fill:url(#linear-gradient-7);}</style><clipPath id="clip-path" transform="translate(40.08 3.83)"><rect class="cls-1" x="-41.11" y="-3.83" width="34" height="34"/></clipPath><linearGradient id="linear-gradient" x1="-28.45" y1="39.83" x2="-28.45" y2="5.83" gradientTransform="matrix(1, 0, 0, -1, 0, 36)" gradientUnits="userSpaceOnUse"><stop offset="0" stop-color="#3c9140"/><stop offset="1" stop-color="#176e38"/></linearGradient><linearGradient id="linear-gradient-2" x1="-11.83" y1="12.17" x2="-11.83" y2="11.14" gradientTransform="matrix(1, 0, 0, -1, 0, 36)" gradientUnits="userSpaceOnUse"><stop offset="0" stop-color="#197038"/><stop offset="1" stop-color="#3b9040"/></linearGradient><linearGradient id="linear-gradient-3" x1="-11.83" y1="10.37" x2="-11.83" y2="9.34" gradientTransform="matrix(1, 0, 0, -1, 0, 36)" gradientUnits="userSpaceOnUse"><stop offset="0" stop-color="#186f38"/><stop offset="1" stop-color="#3b9040"/></linearGradient><linearGradient id="linear-gradient-4" x1="-11.83" y1="8.56" x2="-11.83" y2="7.54" xlink:href="#linear-gradient-3"/><linearGradient id="linear-gradient-5" x1="-15.55" y1="12.17" x2="-15.55" y2="11.14" xlink:href="#linear-gradient-3"/><linearGradient id="linear-gradient-6" x1="-15.55" y1="10.37" x2="-15.55" y2="9.34" xlink:href="#linear-gradient-3"/><linearGradient id="linear-gradient-7" x1="-15.55" y1="8.56" x2="-15.55" y2="7.54" xlink:href="#linear-gradient-3"/></defs><g class="cls-2"><path class="cls-3" d="M-18.2,30.17H-38.71a1.37,1.37,0,0,1-1.37-1.37V-2.46a1.37,1.37,0,0,1,1.37-1.37H-18.2a1.37,1.37,0,0,1,1.37,1.37V28.8A1.37,1.37,0,0,1-18.2,30.17Z" transform="translate(40.08 3.83)"/><path class="cls-4" d="M-21.88,23.34H-35a.51.51,0,0,0-.51.52.51.51,0,0,0,.51.51h13.15a.51.51,0,0,0,.51-.51A.51.51,0,0,0-21.88,23.34Z" transform="translate(40.08 3.83)"/><path class="cls-4" d="M-16.83-2.46V28.8a1.37,1.37,0,0,1-1.37,1.37h-2.56A1.36,1.36,0,0,0-19.4,28.8V-2.46a1.36,1.36,0,0,0-1.36-1.37h2.56A1.37,1.37,0,0,1-16.83-2.46Z" transform="translate(40.08 3.83)"/><path class="cls-5" d="M-28.45,17.92a6.23,6.23,0,0,0,6.22-6.23,6.23,6.23,0,0,0-6.22-6.23,6.23,6.23,0,0,0-6.23,6.23A6.23,6.23,0,0,0-28.45,17.92Z" transform="translate(40.08 3.83)"/><path class="cls-4" d="M-22.76,2.46H-34.15a.35.35,0,0,1-.35-.34V.18a.35.35,0,0,1,.35-.34h11.39a.35.35,0,0,1,.35.34V2.12A.35.35,0,0,1-22.76,2.46Z" transform="translate(40.08 3.83)"/><path class="cls-6" d="M-22.41.18V2.12a.35.35,0,0,1-.35.34H-24.9a.35.35,0,0,0,.35-.34V.18a.35.35,0,0,0-.35-.34h2.14A.35.35,0,0,1-22.41.18Z" transform="translate(40.08 3.83)"/><path class="cls-7" d="M-8.82,30.17H-22.71a.69.69,0,0,1-.69-.68v-8.9a.69.69,0,0,1,.69-.69H-8.82a.69.69,0,0,1,.69.69v8.9A.69.69,0,0,1-8.82,30.17Z" transform="translate(40.08 3.83)"/><path class="cls-8" d="M-8.13,20.59v8.9a.69.69,0,0,1-.69.68h-2.25a.68.68,0,0,0,.68-.68v-8.9a.68.68,0,0,0-.68-.69h2.25A.69.69,0,0,1-8.13,20.59Z" transform="translate(40.08 3.83)"/><path class="cls-4" d="M-18.61,28h-2.51a.34.34,0,0,1-.34-.34V24.69a.34.34,0,0,1,.34-.34h2.51a.35.35,0,0,1,.35.34v2.92A.35.35,0,0,1-18.61,28Z" transform="translate(40.08 3.83)"/><path class="cls-4" d="M-28.45,18.43a6.74,6.74,0,0,0,6.73-6.74A6.74,6.74,0,0,0-28.45,5a6.74,6.74,0,0,0-6.74,6.74A6.74,6.74,0,0,0-28.45,18.43Zm-5.69-6.23h1.61a9,9,0,0,0,1.3,4.48A5.71,5.71,0,0,1-34.14,12.2Zm6.2,5.12V12.2h2.53C-25.53,14.75-26.6,16.88-27.94,17.32Zm0-6.14V6.06c1.34.44,2.41,2.57,2.53,5.12Zm-1-5.12v5.12H-31.5C-31.38,8.63-30.3,6.5-29,6.06Zm0,6.14v5.12c-1.33-.44-2.41-2.57-2.53-5.12Zm3.29,4.48a9,9,0,0,0,1.3-4.48h1.61A5.71,5.71,0,0,1-25.68,16.68Zm2.91-5.5h-1.61a8.92,8.92,0,0,0-1.3-4.48A5.69,5.69,0,0,1-22.77,11.18ZM-31.23,6.7a8.92,8.92,0,0,0-1.3,4.48h-1.61A5.69,5.69,0,0,1-31.23,6.7Z" transform="translate(40.08 3.83)"/><path class="cls-4" d="M-29.8,21.26a.51.51,0,0,0-.52.51.52.52,0,0,0,.52.52h2.7a.51.51,0,0,0,.51-.52.51.51,0,0,0-.51-.51Z" transform="translate(40.08 3.83)"/><path class="cls-4" d="M-27.1,26.75h-2.7a.51.51,0,0,0-.52.51.51.51,0,0,0,.52.51h2.7a.51.51,0,0,0,.51-.51A.51.51,0,0,0-27.1,26.75Z" transform="translate(40.08 3.83)"/><path class="cls-4" d="M-22,21.87a.51.51,0,0,0,.52.51h11.41a.51.51,0,0,0,.51-.51.51.51,0,0,0-.51-.51H-21.47A.51.51,0,0,0-22,21.87Z" transform="translate(40.08 3.83)"/><path class="cls-9" d="M-10.06,23.83h-3.53a.52.52,0,0,0-.52.52.51.51,0,0,0,.52.51h3.53a.51.51,0,0,0,.51-.51A.51.51,0,0,0-10.06,23.83Z" transform="translate(40.08 3.83)"/><path class="cls-10" d="M-10.06,25.63h-3.53a.52.52,0,0,0-.52.52.51.51,0,0,0,.52.51h3.53a.51.51,0,0,0,.51-.51A.51.51,0,0,0-10.06,25.63Z" transform="translate(40.08 3.83)"/><path class="cls-11" d="M-10.06,27.44h-3.53a.51.51,0,0,0-.52.51.51.51,0,0,0,.52.51h3.53A.51.51,0,0,0-9.55,28,.51.51,0,0,0-10.06,27.44Z" transform="translate(40.08 3.83)"/><path class="cls-12" d="M-15.54,23.83h0a.51.51,0,0,0-.51.52.51.51,0,0,0,.51.51h0a.51.51,0,0,0,.51-.51A.51.51,0,0,0-15.54,23.83Z" transform="translate(40.08 3.83)"/><path class="cls-13" d="M-15.54,25.63h0a.51.51,0,0,0-.51.51.5.5,0,0,0,.5.52h0a.51.51,0,0,0,.51-.51A.53.53,0,0,0-15.54,25.63Z" transform="translate(40.08 3.83)"/><path class="cls-14" d="M-15.54,27.44h0a.51.51,0,0,0-.51.51.51.51,0,0,0,.51.51h0A.51.51,0,0,0-15,28,.51.51,0,0,0-15.54,27.44Z" transform="translate(40.08 3.83)"/></g></svg>