<svg xmlns="http://www.w3.org/2000/svg" version="1.1" xmlns:xlink="http://www.w3.org/1999/xlink" xmlns:svgjs="http://svgjs.com/svgjs" width="512" height="512" x="0" y="0" viewBox="0 0 128 128" style="enable-background:new 0 0 512 512" xml:space="preserve" class=""><g><path xmlns="http://www.w3.org/2000/svg" d="m64 74c-20.9867 0-38 14.5827-38 32.5714v5.4286h76v-5.4286c0-17.9887-17.0132-32.5714-38-32.5714z" fill="#f4f4f4" data-original="#f4f4f4" style=""></path><path xmlns="http://www.w3.org/2000/svg" d="m26 112h76v12h-76z" fill="#f7b991" data-original="#f7b991" style=""></path><path xmlns="http://www.w3.org/2000/svg" d="m64 74a41.2393 41.2393 0 0 0 -27 9.6567v40.3433h54v-40.3433a41.2393 41.2393 0 0 0 -27-9.6567z" fill="#e6e6e6" data-original="#e6e6e6" style=""></path><path xmlns="http://www.w3.org/2000/svg" d="m64 83a8 8 0 0 1 -8-8v-8h16v8a8 8 0 0 1 -8 8z" fill="#f7b991" data-original="#f7b991" style=""></path><path xmlns="http://www.w3.org/2000/svg" d="m64 3a26 26 0 0 1 26 26v6a26 26 0 0 1 -26 26 26 26 0 0 1 -26-26v-6a26 26 0 0 1 26-26z" fill="#673821" data-original="#673821" style=""></path><path xmlns="http://www.w3.org/2000/svg" d="m83.5 52.25h3a6.0176 6.0176 0 0 0 6-6 6.0176 6.0176 0 0 0 -6-6h-3a6.0176 6.0176 0 0 0 -6 6 6.0176 6.0176 0 0 0 6 6z" fill="#f7b991" data-original="#f7b991" style=""></path><path xmlns="http://www.w3.org/2000/svg" d="m44.5 52.25h-3a6.0176 6.0176 0 0 1 -6-6 6.0176 6.0176 0 0 1 6-6h3a6.0176 6.0176 0 0 1 6 6 6.0176 6.0176 0 0 1 -6 6z" fill="#f7b991" data-original="#f7b991" style=""></path><path xmlns="http://www.w3.org/2000/svg" d="m64 71a22.0646 22.0646 0 0 1 -22-22v-10a22 22 0 0 1 22-22 22.0647 22.0647 0 0 1 22 22v10a22.0647 22.0647 0 0 1 -22 22z" fill="#fdcba8" data-original="#fdcba8" style="" class=""></path><path xmlns="http://www.w3.org/2000/svg" d="m70 59a6 6 0 1 1 -12 0z" fill="#e62626" data-original="#e62626" style=""></path><path xmlns="http://www.w3.org/2000/svg" d="m64 55a2 2 0 0 1 -2-2v-4a2 2 0 0 1 2-2 2 2 0 0 1 2 2v4a2 2 0 0 1 -2 2z" fill="#f7b991" data-original="#f7b991" style=""></path><circle xmlns="http://www.w3.org/2000/svg" cx="52" cy="43" fill="#673821" r="3" data-original="#673821" style=""></circle><circle xmlns="http://www.w3.org/2000/svg" cx="76" cy="43" fill="#673821" r="3" data-original="#673821" style=""></circle><path xmlns="http://www.w3.org/2000/svg" d="m38 26a86.5005 86.5005 0 0 1 52 0v3a86.5005 86.5005 0 0 0 -52 0z" fill="#fac547" data-original="#fac547" style=""></path><path xmlns="http://www.w3.org/2000/svg" d="m81.0873 37.6941a8.4177 8.4177 0 0 0 -10.1746 0 1.2388 1.2388 0 0 1 -1.5626.0518 1.1267 1.1267 0 0 1 .3636-1.6314 10.4019 10.4019 0 0 1 12.5727 0 1.1268 1.1268 0 0 1 .3635 1.6314 1.2387 1.2387 0 0 1 -1.5626-.0518z" fill="#673821" data-original="#673821" style=""></path><path xmlns="http://www.w3.org/2000/svg" d="m57.0873 37.6941a8.4177 8.4177 0 0 0 -10.1746 0 1.2388 1.2388 0 0 1 -1.5626.0518 1.1268 1.1268 0 0 1 .3635-1.6314 10.4021 10.4021 0 0 1 12.5728 0 1.1268 1.1268 0 0 1 .3635 1.6314 1.2387 1.2387 0 0 1 -1.5626-.0518z" fill="#673821" data-original="#673821" style=""></path><path xmlns="http://www.w3.org/2000/svg" d="m64 3a26 26 0 0 0 -26 26h52a26 26 0 0 0 -26-26z" fill="#d21414" data-original="#d21414" style=""></path><path xmlns="http://www.w3.org/2000/svg" d="m64 3c-6.6271 0-12 11.6406-12 26h24c0-14.3594-5.3725-26-12-26z" fill="#e62626" data-original="#e62626" style=""></path><path xmlns="http://www.w3.org/2000/svg" d="m66.5329 33h-5.0659c-8.267 0-16.3782-.0739-23.467-4a86.5005 86.5005 0 0 1 52 0c-7.0888 3.9261-15.2 4-23.4671 4z" fill="#f53232" data-original="#f53232" style="" class=""></path><path xmlns="http://www.w3.org/2000/svg" d="m63 83h2v13h-2z" fill="#c1c1c1" data-original="#c1c1c1" style=""></path><path xmlns="http://www.w3.org/2000/svg" d="m70 88-6-5 8-11 6 4z" fill="#f4f4f4" data-original="#f4f4f4" style=""></path><path xmlns="http://www.w3.org/2000/svg" d="m58 88 6-5-8-11-6 4z" fill="#f4f4f4" data-original="#f4f4f4" style=""></path><path xmlns="http://www.w3.org/2000/svg" d="m24 54.624h3v60h-3z" fill="#673821" transform="matrix(-1 0 0 -1 51 169.249)" data-original="#673821" style=""></path><path xmlns="http://www.w3.org/2000/svg" d="m2 65.624 22 10v-20z" fill="#e62626" data-original="#e62626" style=""></path><path xmlns="http://www.w3.org/2000/svg" d="m99 102h6v12h-6z" fill="#c1c1c1" data-original="#c1c1c1" style=""></path><path xmlns="http://www.w3.org/2000/svg" d="m125 108.5-26-5.518v-15.964l26-5.518z" fill="#f4f4f4" data-original="#f4f4f4" style=""></path><rect xmlns="http://www.w3.org/2000/svg" fill="#f53232" height="30" rx="2" width="4" x="123" y="80" data-original="#f53232" style="" class=""></rect><path xmlns="http://www.w3.org/2000/svg" d="m93 87h6a0 0 0 0 1 0 0v16a0 0 0 0 1 0 0h-6a2 2 0 0 1 -2-2v-12a2 2 0 0 1 2-2z" fill="#d21414" data-original="#d21414" style=""></path><g xmlns="http://www.w3.org/2000/svg" fill="#fdcba8"><path d="m97 114a2.0059 2.0059 0 0 1 2-2 2 2 0 0 1 0-4h8a2 2 0 0 1 0 4 2 2 0 0 1 0 4 2 2 0 0 1 0 4 2 2 0 0 1 0 4h-8a2 2 0 0 1 0-4 2 2 0 0 1 0-4 2.0059 2.0059 0 0 1 -2-2z" fill="#fdcba8" data-original="#fdcba8" style="" class=""></path><path d="m19 114a2.0059 2.0059 0 0 1 2-2 2 2 0 0 1 0-4h8a2 2 0 0 1 0 4 2 2 0 0 1 0 4 2 2 0 0 1 0 4 2 2 0 0 1 0 4h-8a2 2 0 0 1 0-4 2 2 0 0 1 0-4 2.0059 2.0059 0 0 1 -2-2z" fill="#fdcba8" data-original="#fdcba8" style="" class=""></path></g></g></svg>