<svg xmlns="http://www.w3.org/2000/svg" version="1.1" xmlns:xlink="http://www.w3.org/1999/xlink" xmlns:svgjs="http://svgjs.com/svgjs" width="512" height="512" x="0" y="0" viewBox="0 0 512 512" style="enable-background:new 0 0 512 512" xml:space="preserve" class=""><g><g xmlns="http://www.w3.org/2000/svg" id="_x36_47_x2C__Add_x2C__Wallet_x2C__Cash_x2C__Money"><g><path d="m448.5 358.5-172.5 10-117.5-10-.21.02-74.79-53.13v-131.89l182.5-10 182.5 10z" fill="#a44f3e" data-original="#a44f3e" style="" class=""></path><path d="m463.5 233.5v65c-16.359 0-37.325 0-52.5 0-17.934 0-32.5-14.54-32.5-32.5 0-17.95 14.55-32.5 32.5-32.5z" fill="#ffda2d" data-original="#ffda2d" style=""></path><path d="m373.5 438.5c11.05 0 20 8.95 20 20s-8.95 20-20 20-20-8.95-20-20 8.95-20 20-20z" fill="#66ccff" data-original="#66ccff" style=""></path><circle cx="113.5" cy="63.5" fill="#66ccff" r="30" data-original="#66ccff" style=""></circle><path d="m373.5 53.5v70l-72.5 10-107.5-10z" fill="#8bf2cf" data-original="#8bf2cf" style=""></path><path d="m411 253.5c6.9 0 12.5 5.6 12.5 12.5s-5.6 12.5-12.5 12.5-12.5-5.6-12.5-12.5 5.6-12.5 12.5-12.5z" fill="#ff7100" data-original="#ff7100" style=""></path><path d="m98.5 423.5c-33.14 0-60-26.86-60-60 0-33.142 26.862-60 60-60s60 26.858 60 60c0 33.1-26.82 60-60 60z" fill="#8bf2cf" data-original="#8bf2cf" style=""></path><path d="m448.5 358.5v50h-310.31c12.45-10.99 20.31-27.08 20.31-45 0-1.68-.07-3.34-.21-4.98l.21-.02z" fill="#883f2e" data-original="#883f2e" style="" class=""></path><circle cx="466" cy="41" fill="#8bf2cf" r="7.5" data-original="#8bf2cf" style=""></circle><circle cx="461" cy="431" fill="#8bf2cf" r="7.5" data-original="#8bf2cf" style=""></circle><path d="m448.5 123.5v50h-365v-8.17c0-23.1 18.73-41.83 41.83-41.83z" fill="#bb5d4c" data-original="#bb5d4c" style="" class=""></path><g fill="#8bf2cf"><circle cx="301" cy="441" r="7.5" fill="#8bf2cf" data-original="#8bf2cf" style=""></circle><circle cx="216" cy="51" r="7.5" fill="#8bf2cf" data-original="#8bf2cf" style=""></circle><circle cx="141" cy="456" r="7.5" fill="#8bf2cf" data-original="#8bf2cf" style=""></circle><circle cx="56" cy="131" r="7.5" fill="#8bf2cf" data-original="#8bf2cf" style=""></circle></g><path d="m128.5 358.5h-25v-25c0-2.762-2.239-5-5-5s-5 2.238-5 5v25h-25c-2.761 0-5 2.238-5 5s2.239 5 5 5h25v25c0 2.762 2.239 5 5 5s5-2.238 5-5v-25h25c2.761 0 5-2.238 5-5s-2.239-5-5-5z" fill="#57d9d4" data-original="#57d9d4" style=""></path><path d="m348.5 333.5h-115c-2.761 0-5-2.238-5-5s2.239-5 5-5h110v-115h-205v55c0 2.762-2.239 5-5 5s-5-2.238-5-5v-60c0-2.761 2.239-5 5-5h215c2.762 0 5 2.239 5 5v125c0 2.762-2.238 5-5 5z" fill="#883f2e" data-original="#883f2e" style="" class=""></path></g></g></g></svg>